PathFileType	4	(X/Y/Z)	/Users/itak/Documents/Research/Walk-IL/dataset/trc/00392_00012.trc
DataRate	CameraRate	NumFrames	NumMarkers	Units	OrigDataRate	OrigDataStartFrame	OrigNumFrames
100.000000	100.000000	4	54	mm	100.000000	268	537
Frame#	Time	RPSI			LPSI			L3			STRN			T10			C7			CLAV			RBAK			LBAK			LSHO			LUPA			LAEL			LAOL			LWTS			LWPS			LFRA			LIFD			LHPS			LHTS			RSHO			RUPA			RAEL			RAOL			RWTS			RWPS			RFRA			RIFD			RHTS			RHPS			RBHD			LFHD			RFHD			LBHD			LHIP			RHIP			RASI			LASI			LKNE			LTHI			LANK			LTIP			LTOE			LMT1			LMT5			LHEE			RKNE			RANK			RTIP			RTOE			RMT1			RMT5			RHEE			RTHI			*53			
		X1	Y1	Z1	X2	Y2	Z2	X3	Y3	Z3	X4	Y4	Z4	X5	Y5	Z5	X6	Y6	Z6	X7	Y7	Z7	X8	Y8	Z8	X9	Y9	Z9	X10	Y10	Z10	X11	Y11	Z11	X12	Y12	Z12	X13	Y13	Z13	X14	Y14	Z14	X15	Y15	Z15	X16	Y16	Z16	X17	Y17	Z17	X18	Y18	Z18	X19	Y19	Z19	X20	Y20	Z20	X21	Y21	Z21	X22	Y22	Z22	X23	Y23	Z23	X24	Y24	Z24	X25	Y25	Z25	X26	Y26	Z26	X27	Y27	Z27	X28	Y28	Z28	X29	Y29	Z29	X30	Y30	Z30	X31	Y31	Z31	X32	Y32	Z32	X33	Y33	Z33	X34	Y34	Z34	X35	Y35	Z35	X36	Y36	Z36	X37	Y37	Z37	X38	Y38	Z38	X39	Y39	Z39	X40	Y40	Z40	X41	Y41	Z41	X42	Y42	Z42	X43	Y43	Z43	X44	Y44	Z44	X45	Y45	Z45	X46	Y46	Z46	X47	Y47	Z47	X48	Y48	Z48	X49	Y49	Z49	X50	Y50	Z50	X51	Y51	Z51	X52	Y52	Z52	X53	Y53	Z53	X54	Y54	Z54	

269	2.68	268.568359375	953.8687133789062	-29.97150230407715	258.4873962402344	951.96044921875	-162.0372009277344	262.5909729003906	1037.186767578125	-92.54097747802734	500.1038208007812	1203.35107421875	-104.7251586914062	254.4864196777344	1139.906616210938	-100.1118469238281	282.3690490722656	1390.391723632812	-112.2669372558594	440.4946594238281	1319.691528320312	-105.4340896606445	248.35009765625	1240.744018554688	-46.5443115234375	268.9689331054688	1354.432495117188	-214.9541015625	355.9739074707031	1373.597778320312	-266.8800659179688	326.6053771972656	1255.991088867188	-334.37451171875	335.2441101074219	1062.733276367188	-366.3615112304688	293.7030334472656	1037.95263671875	-296.4982604980469	444.8588256835938	858.8029174804688	-368.7432556152344	374.9075317382812	840.5445556640625	-408.9921569824219	350.6063537597656	960.6141357421875	-385.4983825683594	463.9232177734375	682.7706909179688	-391.5411071777344	400.7100524902344	759.1358032226562	-415.8933715820312	464.5850524902344	768.7864990234375	-405.6848449707031	336.4759216308594	1370.563354492188	46.262939453125	324.0170593261719	1303.671875	104.5950927734375	351.3794250488281	1043.0517578125	144.7141876220703	344.2667541503906	1028.676635742188	50.78920745849609	519.3701171875	856.5816650390625	148.0776672363281	463.8748779296875	833.05224609375	190.2712097167969	385.7493591308594	982.2335205078125	163.5727386474609	548.9739990234375	686.7352905273438	140.3607177734375	548.289306640625	754.16748046875	168.816650390625	482.6417541503906	745.8563232421875	187.4262847900391	309.4801330566406	1575.256713867188	-25.8931884765625	446.30419921875	1593.784301757812	-170.1009368896484	438.5351867675781	1602.181396484375	-48.12961578369141	301.6783447265625	1559.971069335938	-187.4647216796875	340.6871032714844	952.4519653320312	-279.9910583496094	361.1749877929688	933.3455810546875	78.15204620361328	486.8856811523438	953.8021850585938	14.16049385070801	455.1968383789062	956.8880615234375	-245.7560119628906	495.6930847167969	470.1178283691406	-238.4666900634766	453.5837097167969	605.6056518554688	-260.9664611816406	400.6482238769531	37.39901351928711	-189.5996856689453	452.8828430175781	236.3105010986328	-223.3445892333984	611.630615234375	37.43612289428711	-109.4254913330078	528.127197265625	38.46266555786133	-85.59172058105469	530.7717895507812	39.95563888549805	-189.5166625976562	357.6670227050781	34.22935104370117	-135.5493621826172	509.4051513671875	462.8521118164062	43.20895767211914	198.625244140625	158.051513671875	53.97153091430664	448.7593078613281	353.2786865234375	40.89777374267578	312.8741455078125	43.01275253295898	-26.01093292236328	257.7989807128906	88.22128295898438	-49.3060417175293	248.3309936523438	87.61083221435547	52.29586410522461	135.1832122802734	202.1914215087891	6.295839309692383	480.2496032714844	718.4661865234375	64.24628448486328	nan	nan	nan	
270	2.69	260.074951171875	952.8908081054688	-29.90700531005859	249.2498626708984	951.2062377929688	-162.18310546875	253.4166259765625	1035.82275390625	-92.16873931884766	490.54052734375	1201.736694335938	-104.8136215209961	245.1558227539062	1138.704467773438	-99.23094940185547	272.9870910644531	1389.149658203125	-111.1881561279297	431.1466064453125	1318.209106445312	-105.3140182495117	239.555908203125	1239.619018554688	-44.92856597900391	258.9158020019531	1353.122924804688	-213.7568054199219	345.5038757324219	1372.067626953125	-266.3154296875	315.09814453125	1254.338256835938	-333.2454833984375	321.6204528808594	1061.412475585938	-365.0406188964844	281.6325378417969	1036.567260742188	-294.3572692871094	427.4180603027344	854.9556884765625	-369.8182373046875	356.0820617675781	838.246337890625	-408.2846374511719	334.9117431640625	958.8134765625	-384.5919189453125	441.7347106933594	678.4365844726562	-393.5865478515625	379.8257446289062	756.5845336914062	-416.1631774902344	443.7576904296875	764.1029663085938	-407.1225891113281	328.1611328125	1369.40380859375	47.04823684692383	316.22119140625	1302.47216796875	105.5461120605469	343.9778442382812	1041.976318359375	145.4210968017578	335.8710327148438	1027.378173828125	51.76459884643555	512.2486572265625	855.9013061523438	148.1086883544922	456.8849792480469	832.2220458984375	190.3536834716797	378.5526733398438	981.03759765625	164.1459350585938	543.2528076171875	686.3167724609375	141.81982421875	541.9044189453125	753.9661865234375	169.7041015625	476.1958923339844	745.2324829101562	188.0896911621094	299.690673828125	1573.888916015625	-25.58475494384766	436.088134765625	1592.72607421875	-170.1412658691406	428.6593933105469	1601.273803710938	-48.21501922607422	291.5461730957031	1558.3701171875	-187.1219482421875	331.4222412109375	951.950927734375	-279.9319152832031	351.6678161621094	931.477294921875	78.03594970703125	478.048583984375	951.4183349609375	14.5642671585083	446.0190734863281	956.2568359375	-245.2428741455078	491.4164733886719	470.7775268554688	-238.7392425537109	447.880126953125	605.7190551757812	-261.5218811035156	400.5880737304688	37.24184799194336	-189.7935485839844	451.0009155273438	236.4963836669922	-223.6190032958984	611.4847412109375	37.58908462524414	-109.4716567993164	528.0428466796875	38.62689590454102	-85.70790863037109	530.6882934570312	39.93893051147461	-189.6174926757812	357.6628112792969	34.06376266479492	-135.7636566162109	488.2373962402344	458.0618896484375	43.78517532348633	169.9920501708984	160.7248687744141	52.52323913574219	425.1832580566406	349.8641967773438	40.94961929321289	278.967041015625	43.28614807128906	-30.70261001586914	225.5573425292969	90.72286224365234	-52.73063659667969	216.5411376953125	88.13362121582031	48.97713470458984	107.8434829711914	207.9863128662109	5.841793537139893	466.102294921875	714.4733276367188	63.78979873657227	nan	nan	nan	
271	2.7	251.4536285400391	951.9345703125	-29.8894100189209	239.9549865722656	950.3134765625	-162.3691864013672	244.3061828613281	1034.418579101562	-91.78574371337891	480.8505249023438	1200.11865234375	-104.8554840087891	235.6565704345703	1137.447875976562	-98.33531188964844	263.5067749023438	1387.874389648438	-110.0283279418945	421.6707763671875	1316.718383789062	-105.1397857666016	230.5985870361328	1238.499389648438	-43.21359634399414	248.7361450195312	1351.7783203125	-212.4543151855469	334.8791198730469	1370.530517578125	-265.6658630371094	303.4093933105469	1252.72265625	-332.0305786132812	307.9251708984375	1060.1044921875	-363.584716796875	269.5220336914062	1035.204956054688	-292.0844116210938	409.9814147949219	851.2911376953125	-370.6080017089844	337.3507385253906	836.0946655273438	-407.2724609375	319.1792907714844	957.0949096679688	-383.4581909179688	419.6047058105469	674.4144897460938	-395.1083374023438	359.0937805175781	754.2680053710938	-416.0905151367188	423.1031188964844	759.8233642578125	-408.2648620605469	319.7604064941406	1368.25048828125	47.88327789306641	308.3786010742188	1301.308227539062	106.5679550170898	336.6028442382812	1041.0185546875	146.1992340087891	327.381591796875	1026.148681640625	52.89639663696289	505.1421203613281	855.281494140625	148.0740966796875	450.0194396972656	831.463134765625	190.4873809814453	371.3925476074219	979.9290771484375	164.8071136474609	537.5657958984375	685.98779296875	143.0923919677734	535.6072387695312	753.8377075195312	170.4444580078125	469.8745422363281	744.6749877929688	188.7393341064453	289.9095153808594	1572.503173828125	-25.22668075561523	425.8783569335938	1591.562744140625	-170.1375885009766	418.800048828125	1600.28466796875	-48.25867462158203	281.4097595214844	1556.730712890625	-186.7232666015625	322.0195617675781	951.282958984375	-279.8531188964844	341.91650390625	929.76318359375	77.96273040771484	469.02734375	949.10302734375	15.04869651794434	436.7940673828125	955.4906005859375	-244.6487426757812	487.2396240234375	471.3904724121094	-238.9984130859375	442.2130126953125	605.7471923828125	-261.9931335449219	400.5492248535156	37.09150314331055	-189.9914703369141	449.1598815917969	236.6863708496094	-223.9119415283203	611.361572265625	37.71231842041016	-109.5084762573242	527.9617919921875	38.79457092285156	-85.84490966796875	530.6273193359375	39.90158843994141	-189.7273254394531	357.6885375976562	33.93863296508789	-135.9956359863281	466.7117919921875	453.5881652832031	44.17877578735352	142.2317199707031	162.6772766113281	50.91596603393555	401.5508117675781	346.5165100097656	40.80641174316406	246.1403503417969	43.39446258544922	-35.6270751953125	194.4608306884766	92.82240295410156	-56.27827835083008	185.8323211669922	88.22389221191406	45.47324371337891	81.25714111328125	212.6724700927734	5.223265171051025	451.8384704589844	710.7095336914062	63.29794692993164	nan	nan	nan	
272	2.71	242.6419219970703	951.006591796875	-29.93103218078613	230.5752410888672	949.2685546875	-162.6011352539062	235.2493743896484	1032.99609375	-91.40703582763672	471.0361022949219	1198.50390625	-104.8420257568359	225.9869079589844	1136.137451171875	-97.44664001464844	253.9175720214844	1386.570434570312	-108.8021545410156	412.0626831054688	1315.223510742188	-104.9062194824219	221.4236450195312	1237.376831054688	-41.43896865844727	238.4362640380859	1350.406005859375	-211.0665130615234	324.121826171875	1368.994750976562	-264.9379272460938	291.5500183105469	1251.161743164062	-330.7422180175781	294.1407775878906	1058.806884765625	-362.0326538085938	257.3204956054688	1033.888793945312	-289.7135009765625	392.5768737792969	847.8333740234375	-371.1049194335938	318.7522277832031	834.0850219726562	-405.9730834960938	303.4171447753906	955.460205078125	-382.1126403808594	397.6134033203125	670.6972045898438	-396.0517883300781	338.5923156738281	752.1685180664062	-415.6675415039062	402.6481323242188	755.9077758789062	-409.0431823730469	311.2417602539062	1367.096435546875	48.76026916503906	300.4386291503906	1300.171142578125	107.6452331542969	329.2321472167969	1040.178588867188	147.0892944335938	318.7757263183594	1024.982421875	54.19658660888672	498.0555419921875	854.7377319335938	147.9761199951172	443.3025512695312	830.7916259765625	190.6976470947266	364.2528076171875	978.9113159179688	165.5719604492188	531.8636474609375	685.7466430664062	144.1051177978516	529.3814086914062	753.7744140625	170.9855651855469	463.6946716308594	744.1906127929688	189.3740997314453	280.1366577148438	1571.11181640625	-24.81686210632324	415.6563415527344	1590.280517578125	-170.0790710449219	408.9495849609375	1599.212646484375	-48.25640869140625	271.2645568847656	1555.061157226562	-186.2682800292969	312.4796752929688	950.439697265625	-279.7570495605469	331.952392578125	928.23388671875	77.94363403320312	459.7824401855469	946.8843994140625	15.60638236999512	427.5037536621094	954.5831298828125	-243.9935913085938	483.1335754394531	471.961181640625	-239.1949310302734	436.5374450683594	605.6864624023438	-262.333984375	400.5332641601562	36.95478820800781	-190.1822509765625	447.3475646972656	236.8790740966797	-224.1913299560547	611.2672729492188	37.80164337158203	-109.527229309082	527.889404296875	38.95062637329102	-85.98609161376953	530.5902099609375	39.85137176513672	-189.8318023681641	357.7387390136719	33.85567092895508	-136.2311706542969	444.9351806640625	449.4785461425781	44.33282852172852	115.3564071655273	163.8744964599609	49.12763595581055	377.9142761230469	343.2819519042969	40.41560363769531	214.6974029541016	43.30770874023438	-40.61751937866211	164.6759643554688	94.42525482177734	-59.87860870361328	156.3763122558594	87.88991546630859	41.86727905273438	55.39696502685547	216.1729125976562	4.384392261505127	437.5456237792969	707.2259521484375	62.78883361816406	nan	nan	nan	
